<?xml version="1.0" encoding="utf-8"?>
<!-- Generator: Adobe Illustrator 15.1.0, SVG Export Plug-In . SVG Version: 6.00 Build 0)  -->
<!DOCTYPE svg PUBLIC "-//W3C//DTD SVG 1.1//EN" "http://www.w3.org/Graphics/SVG/1.1/DTD/svg11.dtd">
<svg version="1.1" id="Layer_1" xmlns="http://www.w3.org/2000/svg" xmlns:xlink="http://www.w3.org/1999/xlink" x="0px" y="0px"
	 width="17.578px" height="20.508px" viewBox="0 0 17.578 20.508" enable-background="new 0 0 17.578 20.508" xml:space="preserve">
<g>
	<defs>
		<rect id="SVGID_1_" width="17.579" height="20.508"/>
	</defs>
	<clipPath id="SVGID_2_">
		<use xlink:href="#SVGID_1_"  overflow="visible"/>
	</clipPath>
	<path clip-path="url(#SVGID_2_)" fill="none" stroke="#71B1C8" stroke-miterlimit="10" d="M0.5,20.508V7.573
		c0-0.191,0.226-0.293,0.369-0.167l4.25,3.751c0.143,0.126,0.368,0.023,0.368-0.166V7.609c0-0.195,0.235-0.292,0.373-0.155
		l4.027,4.027h1.783c0.313,0,0.566-0.253,0.566-0.565V1.452c0-0.525,0.426-0.952,0.952-0.952h2.938c0.525,0,0.952,0.427,0.952,0.952
		v19.056"/>
	<circle clip-path="url(#SVGID_2_)" fill="none" stroke="#71B1C8" stroke-miterlimit="10" cx="5.332" cy="16.038" r="1.789"/>
	<circle clip-path="url(#SVGID_2_)" fill="none" stroke="#71B1C8" stroke-miterlimit="10" cx="12.264" cy="16.038" r="1.789"/>
</g>
</svg>
